<svg width="396" height="390" viewBox="0 0 396 390" fill="none" xmlns="http://www.w3.org/2000/svg">
<rect width="195.33" height="209.432" rx="3" transform="matrix(-1 0 0 1 387.337 13.1328)" fill="white"/>
<path d="M192.007 13.1328V222.565H387.337" stroke="#1E212C" stroke-width="1.5"/>
<rect width="87.8607" height="15.4465" transform="matrix(-1 0 0 1 333.602 6.49316)" fill="#00F0B5"/>
<path d="M289.671 12.7959C286.379 12.7959 283.711 10.1317 283.711 6.84521C283.711 3.55874 286.379 0.894531 289.671 0.894531C292.963 0.894531 295.632 3.55874 295.632 6.84521C295.632 10.1317 292.963 12.7959 289.671 12.7959Z" fill="#00F0B5"/>
<rect width="87.8607" height="15.4465" transform="matrix(-1 0 0 1 333.602 6.49316)" fill="#D7DADD"/>
<path d="M245.741 6.49219V21.9387H333.602" stroke="#1E212C" stroke-width="1.5"/>
<path d="M289.671 12.7959C286.379 12.7959 283.711 10.1317 283.711 6.84521C283.711 3.55874 286.379 0.894531 289.671 0.894531C292.963 0.894531 295.632 3.55874 295.632 6.84521C295.632 10.1317 292.963 12.7959 289.671 12.7959Z" fill="#D7DADD"/>
<path d="M289.671 222.564V388.703" stroke="white" stroke-width="1.5"/>
<path d="M395.391 388.703H183.952" stroke="white" stroke-width="1.5"/>
<path d="M20.726 380.291V367.5L32.5535 378.323L36.4956 344.377L67.542 366.516L71.4841 351.757L82.3253 362.58V344.869L95.6307 360.612L107.458 325.19L122.242 361.621L143.925 334.538L160.187 371.436V353.724L169.55 370.944L175.957 347.821L193.697 375.371L220.801 341.425L229.178 374.879L237.063 365.532L242.977 388.703H15.3054L13.3346 379.799L20.726 380.291Z" fill="#00F0B5"/>
<path d="M255.812 388.704H0.500239" stroke="white" stroke-width="1.5"/>
<path d="M79.9212 152.4L136.046 148.716L150.581 205.948L183.952 387.555H138.53L143.82 378.091L79.9212 152.4Z" fill="#D7DADD"/>
<path d="M72.6183 377.536L69.858 274.196L114.023 282.464L103.769 387.555H66.0234L72.6183 377.536Z" fill="#B3B7BC"/>
<path d="M86.1555 277.247L114.023 282.464L112.793 295.069C89.6034 291.946 73.6327 285.729 73.6327 285.729L86.1555 277.247Z" fill="#1E212C"/>
<path d="M141.516 239.75C141.516 239.75 148.542 241.913 157.839 245.443L166.819 294.316C150.448 297.298 134.506 297.288 120.568 295.962L110.584 260.701L141.516 239.75Z" fill="#1E212C"/>
<path d="M141.515 153.527L196.788 267.95C196.788 267.95 131.233 302.394 66.0233 283.794V165.303L141.515 153.527Z" fill="#00F0B5"/>
<path d="M120.95 39.4536V47.9422C120.95 54.5059 116.462 60.2216 110.077 61.7882L96.5463 65.1083V31.9196L107.797 29.159C110.965 28.3816 114.315 29.1013 116.883 31.1108C119.45 33.1203 120.95 36.1966 120.95 39.4536L120.95 39.4536Z" fill="#D7DADD"/>
<path d="M120.95 47.9424C120.95 54.5061 116.462 60.2218 110.077 61.7884L96.5463 65.1085" stroke="#1E212C" stroke-width="1.5"/>
<path d="M107.165 46.2579C106.804 46.2579 106.512 45.9662 106.512 45.6065C106.512 45.2467 106.804 44.9551 107.165 44.9551C107.525 44.9551 107.817 45.2467 107.817 45.6065C107.817 45.9662 107.525 46.2579 107.165 46.2579Z" fill="#1E212C"/>
<path d="M117.187 46.2579C116.827 46.2579 116.535 45.9662 116.535 45.6065C116.535 45.2467 116.827 44.9551 117.187 44.9551C117.548 44.9551 117.84 45.2467 117.84 45.6065C117.84 45.9662 117.548 46.2579 117.187 46.2579Z" fill="#1E212C"/>
<path d="M114.247 49.493V39.4541H119.284" stroke="#1E212C" stroke-width="1.5"/>
<path d="M105.936 39.455H110.974" stroke="#1E212C" stroke-width="1.5"/>
<path d="M98.1543 44.5975V48.0836C97.2497 48.0836 96.3822 47.7249 95.7426 47.0863C95.103 46.4478 94.7437 45.5817 94.7437 44.6787C94.7437 44.5742 94.7483 44.4709 94.7576 44.3687C94.9487 42.2544 98.1543 42.4745 98.1543 44.5975Z" fill="#E5E8ED"/>
<path d="M98.1543 48.0837C97.2497 48.0837 96.3822 47.7249 95.7426 47.0864C95.103 46.4478 94.7437 45.5818 94.7437 44.6787" stroke="#1E212C" stroke-width="1.5"/>
<path d="M111.492 50.666C110.61 51.5465 109.18 51.5465 108.298 50.666" stroke="#1E212C" stroke-width="1.5" stroke-linecap="round" stroke-linejoin="round"/>
<path d="M114.247 49.5011L112.044 50.0417" stroke="#1E212C" stroke-width="1.5" stroke-linecap="round"/>
<path d="M116.535 59.9377L116.922 60.1138C119.432 61.2571 122.355 61.0237 124.65 59.4967C126.945 57.9697 128.287 55.3664 128.196 52.6142C127.754 39.951 124.77 22.3823 111.493 23.6396C111.493 23.6396 98.0048 20.5536 92.5991 32.9544C87.1934 45.3553 93.8242 51.326 96.5471 52.7039" stroke="white" stroke-width="1.5"/>
<path d="M121.237 42.89C121.237 42.89 111.052 41.1067 109.896 34.2939C109.896 34.2939 104.85 42.732 97.8089 43.5459" stroke="white" stroke-width="1.5"/>
<path d="M141.516 100.326V153.527L66.0237 172.051V112.799C66.0237 91.7899 80.3906 73.4948 100.827 68.4803H100.827C110.628 66.0755 120.992 68.3019 128.934 74.5182C136.876 80.7345 141.516 90.2507 141.516 100.326L141.516 100.326Z" fill="#D7DADD"/>
<path d="M196.788 267.949C196.788 267.949 131.233 302.394 66.0233 283.794" stroke="#1E212C" stroke-width="1.5"/>
<path d="M86.2826 74.8887C86.2826 74.8887 49.2941 100.711 49.1552 139.165C48.9535 195.045 135.888 144.676 138.701 135.49L141.515 126.305C141.515 126.305 153.128 121.53 150.368 119.784C147.607 118.037 66.023 135.337 66.023 135.337" stroke="white" stroke-width="1.5"/>
<path d="M128.2 74.8887C128.2 74.8887 149.448 90.0208 158.189 129.52C158.189 129.52 172.451 109.795 177.511 102.204C182.572 94.6137 186.712 99.6659 186.712 99.6659C186.712 99.6659 192.602 90.9393 196.788 94.6137C200.974 98.288 189.777 161.302 148.91 168.835" stroke="white" stroke-width="1.5"/>
<path d="M145.431 124.59L231.031 82.5195" stroke="#00F0B5" stroke-width="1.5"/>
</svg>
